<svg width="139" height="42" viewBox="0 0 139 42" fill="none" xmlns="http://www.w3.org/2000/svg">
<path d="M16.7754 14.3896L12.1934 23.3545H17.5723L16.9082 14.3896H16.7754ZM18.2197 33L17.8213 27.7373H10.002L7.2959 33H0.854492L14.2021 9.04395H21.6562L24.4121 33H18.2197ZM32.3975 33H26.5537L31.6504 9.04395H36.4316L43.5039 23.6865H43.6201L46.708 9.04395H52.5684L47.4717 33H42.6904L35.6182 18.3574H35.502L32.3975 33ZM57.416 33H51.3232L56.4199 9.04395H62.5127L57.416 33ZM66.6631 33H61.251L66.3477 9.04395H73.3535L75.8105 25.2803H75.9268L85.0576 9.04395H92.6611L87.5645 33H82.1357L85.5391 17.0791H85.3564L76.2588 32.9668H72.5566L70.166 17.0791H70.0498L66.6631 33ZM105.627 14.3896L101.045 23.3545H106.424L105.76 14.3896H105.627ZM107.071 33L106.673 27.7373H98.8535L96.1475 33H89.7061L103.054 9.04395H110.508L113.264 33H107.071ZM124.188 20.3164H127.939C130.579 20.3164 132.289 18.7393 132.289 16.5146C132.289 14.6553 131.11 13.6426 129.035 13.6426H125.632L124.188 20.3164ZM120.502 9.04395H130.712C135.626 9.04395 138.415 11.9658 138.415 16C138.415 19.4697 136.34 22.7402 132.604 24.0186L135.41 33H129.068L126.595 24.6162H123.274L121.498 33H115.405L120.502 9.04395Z" fill="white"/>
</svg>
